<?xml version="1.0" encoding="utf-8"?>
<!-- Generator: Adobe Illustrator 19.1.0, SVG Export Plug-In . SVG Version: 6.00 Build 0)  -->
<svg version="1.1" id="Ebene_1" xmlns="http://www.w3.org/2000/svg" xmlns:xlink="http://www.w3.org/1999/xlink" x="0px" y="0px"
	 viewBox="0 0 56.7 56.7" style="enable-background:new 0 0 56.7 56.7;" xml:space="preserve">
<style type="text/css">
	.st0{fill:#FFFFFF;}
	.st1{clip-path:url(#SVGID_2_);fill:#8E8279;}
	.st2{clip-path:url(#SVGID_4_);fill:#FFFFFF;}
	.st3{clip-path:url(#SVGID_6_);fill:#8E8279;}
	.st4{clip-path:url(#SVGID_6_);fill:#FFFFFF;}
	.st5{clip-path:url(#SVGID_8_);fill:#8E8279;}
	.st6{clip-path:url(#SVGID_8_);fill:#FFFFFF;}
	.st7{clip-path:url(#SVGID_10_);fill:#8E8279;}
	.st8{clip-path:url(#SVGID_10_);fill:#FFFFFF;}
	.st9{fill:#8E8279;}
	.st10{clip-path:url(#SVGID_12_);fill:#8E8279;}
	.st11{clip-path:url(#SVGID_12_);fill:#FFFFFF;}
</style>
<g>
	<rect x="23.9" y="42.5" class="st0" width="27.1" height="2.1"/>
	<rect x="23.9" y="27.7" class="st0" width="27.1" height="2.1"/>
	<path class="st0" d="M15,17.2h-4.2v-4.3H15V17.2z M17.3,10.7H8.5v8.7h8.8V10.7z"/>
	<path class="st0" d="M10.8,40.7H15v4.3h-4.2V40.7z M8.5,47.2h8.8v-8.8H8.5V47.2z"/>
	<path class="st0" d="M10.8,26.7H15v4.3h-4.3V26.7z M8.5,33.3h8.8v-8.8H8.5V33.3z"/>
	<g>
		<path class="st0" d="M51,14.9v-2.1h-1.3c-8.1,0-16.2,0-24.4,0c-1.5,0-1.5,0-1.4,1.5c0,0.2,0,0.4,0.1,0.6H51z"/>
	</g>
</g>
<g>
	<defs>
		<rect id="SVGID_1_" x="0" y="0" width="56.7" height="56.7"/>
	</defs>
	<clipPath id="SVGID_2_">
		<use xlink:href="#SVGID_1_"  style="overflow:visible;"/>
	</clipPath>
	<path class="st1" d="M56.7,28.3C56.7,44,44,56.7,28.3,56.7C12.7,56.7,0,44,0,28.3S12.7,0,28.3,0C44,0,56.7,12.7,56.7,28.3"/>
</g>
<rect x="24.4" y="40.7" class="st0" width="23.4" height="1.8"/>
<rect x="24.4" y="27.9" class="st0" width="23.4" height="1.8"/>
<path class="st0" d="M16.7,18.8H13v-3.7h3.7V18.8z M18.7,13.2H11v7.6h7.6V13.2z"/>
<path class="st0" d="M13,39.1h3.7v3.7H13V39.1z M11.1,44.7h7.6v-7.6h-7.6V44.7z"/>
<path class="st0" d="M13,27.1h3.7v3.7H13V27.1z M11.1,32.7h7.6v-7.6h-7.6V32.7z"/>
<g>
	<defs>
		<rect id="SVGID_3_" x="0" y="0" width="56.7" height="56.7"/>
	</defs>
	<clipPath id="SVGID_4_">
		<use xlink:href="#SVGID_3_"  style="overflow:visible;"/>
	</clipPath>
	<path class="st2" d="M47.8,16.8V15h-1.2c-7,0-14.1,0-21.1,0c-1.3,0-1.3,0-1.2,1.3c0,0.2,0,0.3,0.1,0.5H47.8z"/>
</g>
</svg>
