<?xml version="1.0" encoding="utf-8"?>
<!-- Generator: Adobe Illustrator 19.1.0, SVG Export Plug-In . SVG Version: 6.00 Build 0)  -->
<svg version="1.1" id="Ebene_1" xmlns="http://www.w3.org/2000/svg" xmlns:xlink="http://www.w3.org/1999/xlink" x="0px" y="0px"
	 viewBox="0 0 56.7 56.7" style="enable-background:new 0 0 56.7 56.7;" xml:space="preserve">
<style type="text/css">
	.st0{fill:#FFFFFF;}
	.st1{clip-path:url(#SVGID_2_);fill:#8E8279;}
	.st2{clip-path:url(#SVGID_4_);fill:#FFFFFF;}
	.st3{clip-path:url(#SVGID_6_);fill:#8E8279;}
	.st4{clip-path:url(#SVGID_6_);fill:#FFFFFF;}
	.st5{clip-path:url(#SVGID_8_);fill:#8E8279;}
	.st6{clip-path:url(#SVGID_8_);fill:#FFFFFF;}
	.st7{clip-path:url(#SVGID_10_);fill:#8E8279;}
	.st8{clip-path:url(#SVGID_10_);fill:#FFFFFF;}
	.st9{fill:#8E8279;}
	.st10{clip-path:url(#SVGID_12_);fill:#8E8279;}
	.st11{clip-path:url(#SVGID_12_);fill:#FFFFFF;}
</style>
<g>
	<defs>
		<rect id="SVGID_5_" x="0" y="0" width="56.7" height="56.7"/>
	</defs>
	<clipPath id="SVGID_2_">
		<use xlink:href="#SVGID_5_"  style="overflow:visible;"/>
	</clipPath>
	<path class="st1" d="M56.7,28.3C56.7,44,44,56.7,28.3,56.7C12.7,56.7,0,44,0,28.3S12.7,0,28.3,0C44,0,56.7,12.7,56.7,28.3"/>
	<path style="clip-path:url(#SVGID_2_);fill:#FFFFFF;" d="M43.9,30.8c-1,0-1.8-0.8-1.8-1.8c0-1,0.8-1.8,1.8-1.8c1,0,1.8,0.8,1.7,1.8
		C45.6,30,44.8,30.8,43.9,30.8 M45.5,41.8c0,1-0.7,1.7-1.7,1.7c-0.9,0-1.7-0.7-1.7-1.7c0-0.9,0.8-1.7,1.7-1.6
		C44.8,40.1,45.5,40.8,45.5,41.8 M14.2,28.3c-0.9,0-1.7-0.7-1.7-1.7c0-0.9,0.7-1.7,1.7-1.7c0.9,0,1.7,0.7,1.7,1.6
		C15.9,27.5,15.2,28.2,14.2,28.3 M47.3,32.9c0.6-1.2,0.8-2.5,0.5-3.8c-0.3-1.6-1.7-3.2-3.2-3.5c-1.7-0.3-3.1,0.4-4.2,2
		c-0.7,1.2-0.8,2.5-0.5,3.8c0.5,2.5,1.8,4.6,3.3,6.7c0.1,0.2,0.3,0.4,0.3,0.5c-0.8,0.4-1.6,0.9-2.4,1.3c-0.1-0.1-0.3-0.3-0.5-0.6
		c-4.4-4.6-8.9-9.1-13.3-13.7c-0.3-0.3-0.6-0.5-1.1-0.4c-1.3,0.3-2.6,0.5-4,0.7c-1.7,0.3-3.3,0.5-5,0.8c0-0.2,0-0.3-0.1-0.5
		c-0.2-1.5-1.4-2.6-2.9-2.8c-1.4-0.1-2.8,0.8-3.2,2.1c-0.5,1.4,0.1,2.9,1.4,3.7c1.3,0.8,2.9,0.6,3.9-0.6c0.3-0.4,0.7-0.5,1.2-0.6
		c2.7-0.4,5.4-0.9,8.1-1.4c0.5-0.1,0.9,0,1.3,0.4c4.4,4.6,8.9,9.2,13.3,13.8c0.2,0.2,0.4,0.6,0.4,1c0.1,1.8,1.6,3.1,3.3,3
		c1.7-0.1,3.1-1.6,2.9-3.4c-0.1-1.5-1.1-2.4-3-2.9c0.2-0.3,0.4-0.5,0.5-0.7C45.5,36.2,46.5,34.6,47.3,32.9"/>
	<path style="clip-path:url(#SVGID_2_);fill:#FFFFFF;" d="M12.1,13.7c0-1,0.8-1.8,1.8-1.8c1,0,1.8,0.8,1.8,1.8c0,1-0.8,1.8-1.8,1.8
		C12.9,15.5,12.1,14.7,12.1,13.7 M17.5,17.2c0.2-0.7,0.4-1.5,0.5-2.3c0.2-2.6-1.8-4.8-4.1-4.8c-2.3,0-4.1,2.4-3.9,4.9
		c0.3,3.2,2.1,5.8,4,8.4C15.4,21.5,16.7,19.5,17.5,17.2"/>
</g>
</svg>
