<?xml version="1.0" encoding="utf-8"?>
<!-- Generator: Adobe Illustrator 19.2.1, SVG Export Plug-In . SVG Version: 6.00 Build 0)  -->
<svg version="1.1" id="Ebene_1" xmlns="http://www.w3.org/2000/svg" xmlns:xlink="http://www.w3.org/1999/xlink" x="0px" y="0px"
	 viewBox="0 0 56.7 56.7" style="enable-background:new 0 0 56.7 56.7;" xml:space="preserve">
<style type="text/css">
	.st0{clip-path:url(#SVGID_2_);fill:#8E8279;}
	.st1{clip-path:url(#SVGID_4_);fill:#FFFFFF;}
	.st2{clip-path:url(#SVGID_6_);fill:#FFFFFF;}
	.st3{clip-path:url(#SVGID_8_);fill:#FFFFFF;}
	.st4{clip-path:url(#SVGID_10_);fill:#FFFFFF;}
	.st5{clip-path:url(#SVGID_12_);fill:#FFFFFF;}
	.st6{clip-path:url(#SVGID_14_);fill:#FFFFFF;}
	.st7{enable-background:new    ;}
	.st8{fill:#8E8279;}
</style>
<g>
	<g>
		<defs>
			<rect id="SVGID_1_" width="56.7" height="56.7"/>
		</defs>
		<clipPath id="SVGID_2_">
			<use xlink:href="#SVGID_1_"  style="overflow:visible;"/>
		</clipPath>
		<path class="st0" d="M56.7,28.3C56.7,44,44,56.7,28.3,56.7C12.7,56.7,0,44,0,28.3S12.7,0,28.3,0C44,0,56.7,12.7,56.7,28.3"/>
	</g>
	<g>
		<defs>
			<rect id="SVGID_3_" width="56.7" height="56.7"/>
		</defs>
		<clipPath id="SVGID_4_">
			<use xlink:href="#SVGID_3_"  style="overflow:visible;"/>
		</clipPath>
		<path class="st1" d="M44.2,28.8c-0.8-2.6-1.5-5.3-2.3-7.9c-0.4-1.4-1.5-2.2-2.8-2.2c-0.3,0-0.6,0.1-0.9,0.2
			c-8.7,2.5-17.4,5-26.1,7.6c-1.8,0.5-2.6,2.1-2.1,3.9c1.5,5,2.9,10,4.4,15.1c0.6,2,2.1,2.8,4,2.2c8.5-2.5,17-5,25.6-7.4
			c2.1-0.6,2.9-2.1,2.3-4.2C45.5,33.5,44.8,31.1,44.2,28.8"/>
	</g>
	<g>
		<defs>
			<rect id="SVGID_5_" width="56.7" height="56.7"/>
		</defs>
		<clipPath id="SVGID_6_">
			<use xlink:href="#SVGID_5_"  style="overflow:visible;"/>
		</clipPath>
		<path class="st2" d="M18,13.2c0.5,1.1,1,2.2,1.5,3.3c0.2,0.5,0.6,0.7,1.1,0.6s0.8-0.4,0.9-1c0-0.1,0-0.3-0.1-0.5
			c-0.7-1.5-1.3-2.9-2-4.4c-0.3-0.5-0.9-0.7-1.4-0.5s-0.7,0.8-0.5,1.3C17.7,12.5,17.8,12.9,18,13.2"/>
	</g>
	<g>
		<defs>
			<rect id="SVGID_7_" width="56.7" height="56.7"/>
		</defs>
		<clipPath id="SVGID_8_">
			<use xlink:href="#SVGID_7_"  style="overflow:visible;"/>
		</clipPath>
		<path class="st3" d="M30.1,14.5c0.6,0,1-0.4,1-1.1c0-0.6,0-1.2,0-1.9c0-0.6,0-1.3,0-1.9c0-0.7-0.4-1.1-1-1.1S29,8.9,29,9.6
			c0,1.3,0,2.6,0,3.9C29.1,14.1,29.5,14.5,30.1,14.5"/>
	</g>
	<g>
		<defs>
			<rect id="SVGID_9_" width="56.7" height="56.7"/>
		</defs>
		<clipPath id="SVGID_10_">
			<use xlink:href="#SVGID_9_"  style="overflow:visible;"/>
		</clipPath>
		<path class="st4" d="M14.1,21.2c-0.1-0.1-0.1-0.4-0.3-0.6C12.9,20,12,19.4,11,18.8c-0.5-0.3-1-0.1-1.3,0.3s-0.3,1,0.2,1.4
			c0.9,0.6,1.8,1.3,2.7,1.8C13.2,22.7,14.1,22.2,14.1,21.2"/>
	</g>
	<g>
		<defs>
			<rect id="SVGID_11_" width="56.7" height="56.7"/>
		</defs>
		<clipPath id="SVGID_12_">
			<use xlink:href="#SVGID_11_"  style="overflow:visible;"/>
		</clipPath>
		<path class="st5" d="M51,18.2c-0.3-0.5-0.8-0.7-1.3-0.4c-0.9,0.5-1.9,1.1-2.8,1.7c-0.6,0.5-0.5,1.4,0.4,1.8c0.1,0,0.5,0,0.7-0.1
			c0.9-0.5,1.9-1.1,2.8-1.7C51.2,19.3,51.3,18.7,51,18.2"/>
	</g>
	<g>
		<defs>
			<rect id="SVGID_13_" width="56.7" height="56.7"/>
		</defs>
		<clipPath id="SVGID_14_">
			<use xlink:href="#SVGID_13_"  style="overflow:visible;"/>
		</clipPath>
		<path class="st6" d="M39.8,16.5c0.4,0.3,0.8,0.2,1.3-0.1c0.1-0.1,0.2-0.2,0.3-0.4c0.5-1.5,1-3,1.5-4.6c0.2-0.6-0.2-1.1-0.7-1.3
			c-0.5-0.1-1.1,0.1-1.3,0.7c-0.1,0.3-0.2,0.7-0.3,1.1c-0.4,1.2-0.7,2.3-1.1,3.5C39.2,15.7,39.4,16.2,39.8,16.5"/>
	</g>
</g>
<g class="st7">
	<path class="st8" d="M19.5,40.5c-1.8,0.4-3.2,0.1-3.8-1.2l1.7-1.4c0.4,0.6,0.9,0.9,1.7,0.9l-0.4-1.6l-0.8,0.1c-1.7,0.1-2.6-0.6-3-2
		c-0.5-2,0.7-3,2.3-3.6l-0.4-1.4l0.9-0.2l0.4,1.4c1.9-0.4,3.3,0.1,3.7,1.6l-2.1,0.9c-0.2-0.5-0.5-0.7-1.1-0.7l0.4,1.6l0.7-0.1
		c1.9-0.2,2.9,0.6,3.3,2c0.5,1.8-0.7,2.9-2.5,3.5l0.4,1.7l-0.9,0.2L19.5,40.5z M18,35l-0.4-1.5c-0.5,0.2-0.6,0.5-0.5,0.9
		C17.2,34.8,17.5,35,18,35z M19.5,37.1l0.4,1.4c0.4-0.2,0.8-0.4,0.7-0.8C20.5,37.3,20.2,37.1,19.5,37.1z"/>
	<path class="st8" d="M29.5,37.3l-5,1.3L24,36.9l3.5-7.7l2.4-0.6l1.7,6.2l1.7-0.5l0.5,1.9l-1.7,0.5l0.7,2.6l-2.6,0.7L29.5,37.3z
		 M29,35.4l-0.5-1.7c-0.2-0.7-0.3-1.6-0.3-1.6l-0.1,0c0,0-0.1,0.6-0.3,1l-0.7,1.7c-0.3,0.7-0.7,1.2-0.7,1.2l0,0.1
		c0,0,0.4-0.2,1.1-0.4L29,35.4z"/>
</g>
<g class="st7">
	<path class="st8" d="M33.5,32c-0.7-2.4,0.4-4.8,3.2-5.6c2.8-0.8,4.9,0.8,5.6,3.2c0.7,2.5-0.4,4.9-3.2,5.6
		C36.3,36,34.2,34.5,33.5,32z M36,31.4c0.3,1.2,1.3,2,2.5,1.7c1.2-0.3,1.7-1.5,1.4-2.7c-0.3-1.2-1.3-2-2.5-1.6
		C36.1,29.1,35.7,30.2,36,31.4z"/>
</g>
</svg>
