<?xml version="1.0" encoding="utf-8"?>
<!-- Generator: Adobe Illustrator 19.1.0, SVG Export Plug-In . SVG Version: 6.00 Build 0)  -->
<svg version="1.1" id="Ebene_1" xmlns="http://www.w3.org/2000/svg" xmlns:xlink="http://www.w3.org/1999/xlink" x="0px" y="0px"
	 viewBox="0 0 56.7 56.7" style="enable-background:new 0 0 56.7 56.7;" xml:space="preserve">
<style type="text/css">
	.st0{fill:#FFFFFF;}
	.st1{clip-path:url(#SVGID_2_);fill:#8E8279;}
	.st2{clip-path:url(#SVGID_4_);fill:#FFFFFF;}
	.st3{clip-path:url(#SVGID_6_);fill:#8E8279;}
	.st4{clip-path:url(#SVGID_6_);fill:#FFFFFF;}
	.st5{clip-path:url(#SVGID_8_);fill:#8E8279;}
	.st6{clip-path:url(#SVGID_8_);fill:#FFFFFF;}
	.st7{clip-path:url(#SVGID_10_);fill:#8E8279;}
	.st8{clip-path:url(#SVGID_10_);fill:#FFFFFF;}
	.st9{fill:#8E8279;}
	.st10{clip-path:url(#SVGID_12_);fill:#8E8279;}
	.st11{clip-path:url(#SVGID_12_);fill:#FFFFFF;}
</style>
<g>
	<defs>
		<rect id="SVGID_11_" x="0" y="0" width="56.7" height="56.7"/>
	</defs>
	<clipPath id="SVGID_2_">
		<use xlink:href="#SVGID_11_"  style="overflow:visible;"/>
	</clipPath>
	<path class="st1" d="M56.7,28.3C56.7,44,44,56.7,28.3,56.7C12.7,56.7,0,44,0,28.3S12.7,0,28.3,0C44,0,56.7,12.7,56.7,28.3"/>
	<path style="clip-path:url(#SVGID_2_);fill:#FFFFFF;" d="M39.3,33.7c-0.5,0.4-1,0.7-1.7,0.9c0,0-0.1,0-0.1,0c0,0,0,0-0.1,0
		c-0.1-0.5-0.3-1-0.4-1.5c0.1,0,0.1,0,0.2-0.1c0.7-0.2,1.3-0.7,1.7-1.3c0.1-0.1,0.1-0.3,0.1-0.5c-0.2-1-0.4-2-0.7-3
		c-0.2-0.7-0.3-1.4-0.5-2.1c0,0,0-0.1,0-0.1c0,0,0.1,0,0.1,0c0.5,0,1,0,1.6,0c0.1,0,0.1,0,0.2,0.1c0.1,0.9,0.3,1.8,0.4,2.7
		c0.1,0.4,0.1,0.8,0.2,1.1c0-0.1,0.1-0.2,0.1-0.3c0.5-1.2,1-2.4,1.4-3.6c0,0,0.1-0.1,0.1-0.1c0.6,0,1.1,0,1.7,0c0,0,0,0,0,0
		c0,0,0,0.1,0,0.1c-0.9,1.7-1.7,3.4-2.6,5.1C40.6,32.1,40.1,33,39.3,33.7 M36.4,31.7c0,0.1,0,0.2-0.2,0.2c-0.5,0-0.9,0-1.4,0
		c0-0.3,0.1-0.6,0.1-1c-0.1,0.1-0.2,0.2-0.2,0.3c-0.5,0.5-1.1,0.9-1.9,0.8c-0.8,0-1.4-0.5-1.4-1.4c0-0.6,0.1-1.2,0.2-1.7
		c0.2-0.9,0.4-1.9,0.5-2.8c0-0.1,0.1-0.2,0.2-0.2c0.5,0,1,0,1.4,0c0,0,0.1,0,0.2,0c-0.1,0.6-0.2,1.1-0.3,1.7
		c-0.1,0.7-0.2,1.5-0.4,2.2c0,0.1,0,0.1,0,0.2c0,0.5,0.4,0.7,0.8,0.5c0.3-0.1,0.5-0.3,0.7-0.6c0.3-0.5,0.4-1,0.5-1.5
		c0.1-0.8,0.3-1.6,0.4-2.3c0,0,0-0.1,0-0.1h1.7c-0.1,0.3-0.1,0.6-0.2,0.9C37,28.5,36.7,30.1,36.4,31.7 M29.8,27.6
		c0.7,0.3,1,0.8,1,1.6c0.1,1.1-0.5,1.8-1.4,2.3c-0.5,0.3-1.1,0.4-1.6,0.4c-0.9,0.1-1.9,0.1-2.8,0c-0.1,0-0.2,0-0.3,0c0,0,0,0-0.1,0
		c0-0.3,0.1-0.5,0.1-0.8c0.4-2.3,0.9-4.6,1.3-6.9c0-0.1,0-0.2,0.2-0.2c1-0.1,1.9-0.2,2.9-0.1c0.4,0.1,0.9,0.2,1.2,0.4
		c1,0.6,1.1,2,0.2,2.8c-0.3,0.2-0.5,0.4-0.9,0.5c0,0-0.1,0-0.2,0.1C29.6,27.6,29.7,27.6,29.8,27.6 M24.2,26
		c-0.9,1.7-1.7,3.5-2.6,5.2c-0.4,0.9-1,1.6-1.7,2.3c-0.5,0.5-1.1,0.8-1.8,1c-0.1,0-0.1,0-0.2,0c-0.1-0.5-0.3-1-0.4-1.5
		c0.2-0.1,0.4-0.1,0.6-0.2c0.6-0.3,1-0.7,1.4-1.2c0.1-0.1,0.1-0.3,0.1-0.4c-0.4-1.7-0.7-3.4-1.1-5.1c0-0.1,0-0.1,0-0.2
		c0.1,0,0.1,0,0.2,0c0.5,0,1,0,1.5,0c0.1,0,0.2,0,0.2,0.2c0.2,1.1,0.3,2.3,0.5,3.4c0,0.1,0,0.2,0.1,0.4c0-0.1,0-0.1,0.1-0.1
		c0.5-1.3,1-2.5,1.5-3.8c0,0,0.1-0.1,0.1-0.1C23.1,25.9,23.6,25.9,24.2,26C24.2,25.9,24.2,26,24.2,26C24.2,26,24.2,26,24.2,26
		 M16.7,31.9H15c0.5-2.7,1.1-5.5,1.6-8.2h1.8C17.8,26.4,17.3,29.1,16.7,31.9 M39.7,21.3c0.2,1,0.7,1.5,1.7,1.7
		c-1,0.2-1.5,0.7-1.7,1.7c-0.2-1-0.8-1.5-1.7-1.7C38.9,22.8,39.5,22.3,39.7,21.3 M41.5,25.4c-0.4,0.1-0.6,0.3-0.7,0.6
		c-0.1-0.3-0.3-0.5-0.7-0.6c0.4-0.1,0.6-0.3,0.7-0.7C40.9,25.1,41.1,25.4,41.5,25.4 M42.1,22.8c0.1,0.3,0.2,0.6,0.4,0.8
		c0.2,0.2,0.5,0.3,0.8,0.4c-0.7,0.1-1,0.5-1.2,1.1c-0.1-0.6-0.5-1-1.1-1.1C41.6,23.8,42,23.5,42.1,22.8 M47.9,34.1
		c-0.2-0.9-0.3-1.7-0.4-2.6c-0.1-0.4-0.1-0.7-0.2-1.1c0,0,0,0,0,0c0,0,0,0,0,0c-0.2,0.8-0.7,1.2-1.4,1.4c-0.6,0.2-1.2,0.2-1.9,0.1
		c-0.4-0.1-0.7-0.1-1.1-0.3c-0.1-0.1-0.1-0.1-0.1-0.2c0.1-0.3,0.2-0.6,0.3-0.9c0,0,0-0.1,0-0.1c0.4,0.1,0.7,0.2,1,0.3
		c0.3,0.1,0.6,0.1,0.9,0c0.4-0.1,0.5-0.6,0.2-0.9c-0.1-0.1-0.3-0.2-0.5-0.3c-0.2-0.1-0.4-0.2-0.6-0.4c-0.3-0.2-0.6-0.5-0.7-0.9
		c-0.1-0.6,0-1.2,0.5-1.6c0.4-0.4,0.9-0.6,1.4-0.7c0.3,0,0.7,0,1-0.1c0-0.1,0-0.2,0-0.3c-0.3-1.6-0.6-3.3-0.8-4.9
		c-0.3-1.6-0.5-3.2-0.8-4.8c-0.2-1.3-1.5-2.2-2.8-2c-0.9,0.1-1.8,0.3-2.7,0.5c-2.1,0.4-4.2,0.8-6.3,1.1c-1.9,0.3-3.8,0.7-5.8,1
		c-2.8,0.5-5.6,1-8.4,1.5c-2.6,0.5-5.1,0.9-7.7,1.4c-1.5,0.3-2.4,1.7-2.2,3.1c0.2,1.2,0.4,2.4,0.6,3.7c0.1,0.8,0.3,1.7,0.4,2.5
		c0-0.1,0-0.1,0-0.1c0.3-1.5,0.6-3,0.9-4.6c0-0.1,0.1-0.2,0.2-0.2c1.5,0,2.9,0,4.4,0h0.2c0,0.1,0,0.1,0,0.2
		c-0.1,0.4-0.2,0.8-0.2,1.2c0,0.1-0.1,0.2-0.2,0.2c-0.9,0-1.8,0-2.7,0h-0.2c-0.1,0.6-0.2,1.3-0.4,1.9h2.8c-0.1,0.4-0.2,0.9-0.3,1.3
		c0,0.2-0.1,0.2-0.2,0.2c-0.8,0-1.7,0-2.5,0c-0.1,0-0.2,0-0.2,0.1c0,0.2-0.1,0.5-0.1,0.7c-0.1,0.8-0.3,1.6-0.4,2.3
		c0,0.1-0.1,0.1-0.2,0.1c-0.1,0-0.3,0-0.4,0c0,0,0,0.1,0,0.1c0.2,1.1,0.4,2.2,0.6,3.3c0.3,1.8,0.6,3.6,0.9,5.4
		c0.2,1.3,1.6,2.2,2.9,2c0.6-0.1,1.3-0.2,1.9-0.3c2-0.4,4-0.7,6.1-1.1c1.5-0.3,3.1-0.6,4.6-0.8c3-0.5,6-1.1,9-1.6
		c3.1-0.6,6.1-1.1,9.2-1.7C47.2,36.8,48.1,35.5,47.9,34.1"/>
	<path style="clip-path:url(#SVGID_2_);fill:#FFFFFF;" d="M45.4,27.2c-0.3,0.1-0.3,0.5-0.1,0.7c0.1,0.1,0.3,0.2,0.5,0.3
		c0.5,0.2,0.9,0.5,1.2,1c-0.1-0.6-0.2-1.2-0.3-1.8c0-0.1,0-0.2-0.2-0.2c-0.2,0-0.4-0.1-0.6-0.1C45.8,27.1,45.6,27.2,45.4,27.2"/>
	<path class="st1" d="M29,26.6c-0.2,0.1-0.4,0.2-0.5,0.3c-0.4,0.1-0.8,0.1-1.3,0.1c0.1-0.4,0.1-0.7,0.2-1.1c0-0.2,0.1-0.5,0.1-0.7
		c0,0,0.1-0.1,0.1-0.1c0.4,0,0.7,0,1.1,0c0.3,0,0.6,0.2,0.6,0.6C29.4,26,29.3,26.4,29,26.6 M28.5,30.2c-0.3,0.2-0.7,0.3-1,0.3
		c-0.3,0-0.6,0-1,0c0.1-0.8,0.3-1.6,0.4-2.3c0.4,0,0.8,0,1.2,0.1c0.4,0.1,0.7,0.3,0.8,0.7C29,29.5,28.9,29.9,28.5,30.2 M30.6,27
		c0.9-0.8,0.8-2.2-0.2-2.8c-0.4-0.2-0.8-0.4-1.2-0.4c-1-0.1-1.9,0-2.9,0.1c-0.2,0-0.2,0.1-0.2,0.2c-0.4,2.3-0.9,4.6-1.3,6.9
		c-0.1,0.3-0.1,0.5-0.1,0.8c0,0,0.1,0,0.1,0c0.1,0,0.2,0,0.3,0c0.9,0.1,1.9,0.1,2.8,0c0.6-0.1,1.1-0.2,1.6-0.4
		c0.9-0.5,1.5-1.2,1.4-2.3c0-0.7-0.4-1.2-1-1.6c-0.1,0-0.1-0.1-0.3-0.1c0.1,0,0.1,0,0.2-0.1C30,27.3,30.3,27.2,30.6,27"/>
	<path class="st1" d="M22.5,25.9c0,0-0.1,0.1-0.1,0.1c-0.5,1.3-1,2.5-1.5,3.8c0,0,0,0.1-0.1,0.1c0-0.2,0-0.3-0.1-0.4
		c-0.2-1.1-0.3-2.3-0.5-3.4c0-0.1-0.1-0.2-0.2-0.2c-0.5,0-1,0-1.5,0c0,0-0.1,0-0.2,0c0,0.1,0,0.1,0,0.2c0.4,1.7,0.7,3.4,1.1,5.1
		c0,0.1,0,0.3-0.1,0.4c-0.3,0.5-0.8,0.9-1.4,1.2c-0.2,0.1-0.4,0.1-0.6,0.2c0.1,0.5,0.3,1,0.4,1.5c0.1,0,0.1,0,0.2,0
		c0.7-0.2,1.3-0.5,1.8-1c0.7-0.7,1.2-1.5,1.7-2.3c0.9-1.7,1.8-3.5,2.6-5.2c0,0,0-0.1,0-0.1c0,0,0,0-0.1,0
		C23.6,25.9,23.1,25.9,22.5,25.9"/>
	<path class="st1" d="M43.7,26C43.7,26,43.7,25.9,43.7,26c-0.6,0-1.2,0-1.7,0c0,0-0.1,0.1-0.1,0.1c-0.5,1.2-1,2.4-1.4,3.6
		c0,0.1-0.1,0.2-0.1,0.3c-0.1-0.4-0.1-0.8-0.2-1.1c-0.1-0.9-0.3-1.8-0.4-2.7c0-0.1-0.1-0.1-0.2-0.1c-0.5,0-1,0-1.6,0
		c0,0-0.1,0-0.1,0c0,0.1,0,0.1,0,0.1c0.2,0.7,0.3,1.4,0.5,2.1c0.2,1,0.4,2,0.7,3c0,0.2,0,0.3-0.1,0.5c-0.4,0.6-1,1.1-1.7,1.3
		c-0.1,0-0.1,0-0.2,0.1c0.1,0.5,0.3,1,0.4,1.5c0,0,0.1,0,0.1,0c0,0,0.1,0,0.1,0c0.6-0.2,1.2-0.5,1.7-0.9c0.8-0.7,1.3-1.6,1.8-2.5
		C42,29.5,42.8,27.8,43.7,26C43.7,26,43.7,26,43.7,26"/>
	<path class="st1" d="M37.4,26h-1.7c0,0,0,0.1,0,0.1c-0.1,0.8-0.3,1.6-0.4,2.3c-0.1,0.5-0.2,1-0.5,1.5c-0.2,0.3-0.4,0.5-0.7,0.6
		c-0.5,0.2-0.8-0.1-0.8-0.5c0-0.1,0-0.1,0-0.2c0.1-0.7,0.2-1.5,0.4-2.2c0.1-0.6,0.2-1.1,0.3-1.7c-0.1,0-0.1,0-0.2,0
		c-0.5,0-1,0-1.4,0c-0.1,0-0.2,0-0.2,0.2c-0.2,0.9-0.4,1.9-0.5,2.8c-0.1,0.6-0.2,1.1-0.2,1.7c0.1,0.8,0.6,1.3,1.4,1.4
		c0.8,0,1.4-0.3,1.9-0.9c0.1-0.1,0.1-0.1,0.2-0.3c0,0.4-0.1,0.7-0.1,1c0.5,0,0.9,0,1.4,0c0.1,0,0.2-0.1,0.2-0.2
		c0.3-1.6,0.6-3.2,0.9-4.9C37.3,26.6,37.4,26.3,37.4,26"/>
	<path class="st1" d="M16.5,23.7c-0.5,2.7-1.1,5.5-1.6,8.2h1.8c0.5-2.7,1.1-5.5,1.6-8.2H16.5z"/>
	<path class="st1" d="M39.7,24.7c0.2-1,0.7-1.5,1.7-1.7c-1-0.2-1.5-0.7-1.7-1.7c-0.2,1-0.8,1.5-1.7,1.7
		C38.9,23.2,39.5,23.7,39.7,24.7"/>
	<path class="st1" d="M42.1,25.1c0.1-0.6,0.5-1,1.2-1.1c-0.3-0.1-0.6-0.2-0.8-0.4c-0.2-0.2-0.3-0.5-0.4-0.8c-0.1,0.7-0.5,1-1.1,1.1
		C41.6,24.1,42,24.5,42.1,25.1"/>
	<path class="st1" d="M40.1,25.4c0.4,0.1,0.6,0.3,0.7,0.6c0.1-0.3,0.3-0.5,0.7-0.6c-0.4-0.1-0.6-0.3-0.7-0.7
		C40.7,25.2,40.5,25.4,40.1,25.4"/>
	<path style="clip-path:url(#SVGID_2_);fill:#FFFFFF;" d="M29,26.6c-0.2,0.1-0.4,0.2-0.5,0.3c-0.4,0.1-0.8,0.1-1.3,0.1
		c0.1-0.4,0.1-0.7,0.2-1.1c0-0.2,0.1-0.5,0.1-0.7c0,0,0.1-0.1,0.1-0.1c0.4,0,0.7,0,1.1,0c0.3,0,0.6,0.2,0.6,0.6
		C29.4,26,29.3,26.4,29,26.6"/>
	<path style="clip-path:url(#SVGID_2_);fill:#FFFFFF;" d="M28.5,30.2c-0.3,0.2-0.7,0.3-1,0.3c-0.3,0-0.6,0-1,0
		c0.2-0.8,0.3-1.6,0.4-2.3c0.4,0,0.8,0,1.2,0.1c0.4,0.1,0.7,0.3,0.8,0.7C29,29.5,28.9,29.9,28.5,30.2"/>
</g>
</svg>
